<svg xmlns="http://www.w3.org/2000/svg" xmlns:xlink="http://www.w3.org/1999/xlink" width="447.68" height="622.757"><defs><linearGradient id="a"><stop offset="0" stop-color="#fc466b"/><stop offset="1" stop-color="#475dfb"/></linearGradient><linearGradient xlink:href="#a" id="b" x1="306.022" x2="306.022" y1="822.87" y2="200.113" gradientUnits="userSpaceOnUse"/></defs><path fill="url(#b)" d="M278.1 200.174c-20.268-.103-46.046-.062-79.6.025l-116 .301-.256 310c-.14 170.5-.035 310.584.236 311.299.403 1.058 24.242 1.234 128.758.95 114.901-.314 129.668-.533 141.762-2.097 81.466-10.535 136.656-43.558 162.006-96.933 11.53-24.277 15.674-46.556 14.724-79.162-.741-25.47-4.361-42.241-13.2-61.157-15.83-33.874-46.87-60.292-91.53-77.904-5.225-2.06-9.882-3.97-10.35-4.242-.467-.272 3.25-2.804 8.258-5.625 29.82-16.798 52.732-39.8 65.867-66.129 10.225-20.494 14.4-40.478 14.518-69.5.085-21.012-1.264-31.871-5.873-47.27-15.758-52.647-59.69-89.795-124.42-105.207-22.88-5.447-34.098-7.04-94.9-7.35zM179.5 288.5h71c65.45 0 71.665.144 79.5 1.855 48.323 10.554 73.185 36.723 75.67 79.647 1.052 18.169-2.228 34.421-9.986 49.498C390.6 429.379 376 444.52 366 450.29c-12.993 7.493-29.7 12.703-48.957 15.267-14.54 1.936-136.852 2.107-137.582.193-.262-.688-.36-40.85-.219-89.25zm116.898 261.637c35.09.15 44.118 1.06 57.372 3.853 19.958 4.207 33.769 10.05 46.77 19.79 15.87 11.888 24.563 24.479 29.702 43.023 1.778 6.415 2.142 10.527 2.186 24.697.045 14.723-.254 18.13-2.244 25.445-4.289 15.763-11.37 27.41-23.485 38.63-11.5 10.65-27.246 18.961-44.293 23.38-21.08 5.465-18.255 5.307-103.166 5.746-64.56.334-79.352.167-79.758-.896-.273-.718-.382-42.255-.24-92.305l.258-91 72-.3c18.609-.078 33.202-.113 44.898-.063z" transform="translate(-82.182 -200.113)"/></svg>