<svg xmlns="http://www.w3.org/2000/svg" xmlns:xlink="http://www.w3.org/1999/xlink" width="36" height="36" viewBox="-1 0 36 36"><defs><linearGradient id="a"><stop offset="0" stop-color="#fc466b"/><stop offset="1" stop-color="#475dfb"/></linearGradient><linearGradient xlink:href="#a" id="b" x1="306.022" x2="306.022" y1="822.87" y2="200.113" gradientTransform="matrix(.0578 0 0 .0578 -.69 -11.568)" gradientUnits="userSpaceOnUse"/></defs><path fill="url(#b)" d="M15.386.004a645.072 645.072 0 0 0-4.602.001L4.08.022l-.015 17.92c-.008 9.857-.002 17.955.014 17.996.023.061 1.401.071 7.443.055 6.642-.018 7.496-.03 8.195-.121 4.709-.61 7.9-2.518 9.365-5.604.666-1.403.906-2.691.851-4.576-.043-1.472-.252-2.442-.763-3.535-.915-1.958-2.71-3.485-5.291-4.504-.302-.119-.571-.23-.598-.245-.027-.016.187-.162.477-.325 1.724-.971 3.048-2.3 3.808-3.823.59-1.184.832-2.34.839-4.017.005-1.215-.073-1.843-.34-2.733-.91-3.043-3.45-5.19-7.192-6.082C19.549.113 18.9.021 15.386.003Zm-5.7 5.105h4.104c3.784 0 4.143.009 4.596.108 2.794.61 4.23 2.123 4.374 4.604.061 1.05-.128 1.99-.577 2.861-.294.571-1.138 1.447-1.716 1.78-.75.433-1.717.734-2.83.883-.84.112-7.91.121-7.953.01-.015-.039-.021-2.36-.013-5.159zm6.758 15.125c2.028.009 2.55.061 3.316.223 1.154.243 1.952.58 2.704 1.144.917.687 1.42 1.415 1.717 2.487.103.37.124.608.126 1.427.003.852-.014 1.048-.13 1.471-.247.912-.657 1.585-1.357 2.233-.665.616-1.575 1.097-2.56 1.352-1.22.316-1.056.307-5.964.332-3.732.02-4.587.01-4.61-.052-.017-.041-.023-2.442-.015-5.336l.015-5.26 4.162-.017c1.076-.005 1.92-.007 2.596-.004z"/></svg>